<svg xmlns="http://www.w3.org/2000/svg" width="1200" height="800" viewBox="0 0 1200 800">
<rect width="1200" height="800" fill="#ab0001"/>
<path fill="#fff" fill-rule="evenodd" d="M611,119 618,119 618,120 624,120 624,121 632,122 632,123 634,123 635,125 637,125 637,126 639,126 639,127 642,127 642,131 641,131 641,132 636,132 636,133 633,135 633,139 634,139 634,141 635,141 635,143 636,143 636,147 637,147 637,150 638,150 638,154 639,154 639,158 640,158 640,163 641,163 642,170 643,170 643,175 644,175 644,183 646,184 646,186 647,186 647,188 648,188 648,190 649,190 650,192 654,192 654,191 656,190 656,188 658,187 658,185 659,185 659,183 661,182 662,178 666,175 667,171 669,170 670,166 672,165 672,163 673,163 673,161 674,161 675,157 677,156 678,152 679,152 679,151 683,148 683,146 685,145 686,139 688,138 688,136 689,136 689,135 688,135 688,133 686,133 686,132 682,132 682,131 681,131 681,128 682,128 682,127 685,127 685,128 687,128 687,129 689,129 689,130 691,130 691,131 693,131 693,132 696,132 697,134 700,134 701,136 703,136 703,137 706,137 706,138 707,138 707,143 699,143 699,144 695,147 695,149 694,149 694,151 693,151 693,153 692,153 691,157 689,158 689,160 688,160 688,162 687,162 687,165 686,165 686,167 684,168 684,170 683,170 682,174 680,175 680,178 678,179 678,181 677,181 677,183 676,183 675,187 673,188 673,190 671,191 671,193 670,193 670,194 666,197 666,199 665,199 665,201 663,202 663,204 662,204 661,208 659,209 659,211 656,213 656,215 655,215 654,217 648,217 648,216 643,215 643,214 642,214 642,212 641,212 641,210 640,210 640,207 639,207 639,205 638,205 638,203 637,203 637,201 636,201 636,198 635,198 635,192 634,192 634,188 633,188 633,185 632,185 632,182 631,182 631,178 630,178 630,175 629,175 629,172 628,172 628,167 627,167 627,163 626,163 625,158 624,158 624,155 623,155 622,148 621,148 620,143 619,143 619,141 618,141 618,139 617,139 617,137 616,137 615,132 614,132 613,130 610,130 610,129 608,129 608,128 607,128 607,121 608,121 608,120 611,120Z
M581,124 593,125 593,126 595,127 595,129 596,129 596,138 595,138 595,139 582,139 582,140 571,141 571,142 569,142 569,143 567,144 567,145 568,145 569,152 570,152 571,167 572,167 572,171 573,171 574,188 575,188 575,192 576,192 576,199 577,199 577,206 578,206 578,210 579,210 580,212 584,212 584,211 589,210 589,209 594,209 594,208 599,208 599,207 605,207 605,208 607,209 608,213 609,213 609,219 606,219 606,220 601,220 601,221 595,221 595,222 591,222 591,223 577,224 577,225 574,225 574,226 572,226 572,227 569,227 569,228 567,228 567,229 563,230 562,232 559,232 558,234 556,234 556,235 554,235 554,236 551,236 551,237 546,238 546,237 544,236 544,234 543,234 543,231 542,231 542,229 544,228 544,226 546,226 546,225 548,225 548,224 551,224 551,223 554,223 554,222 558,222 558,221 563,220 563,219 565,218 565,214 564,214 564,210 563,210 563,203 562,203 562,200 561,200 561,182 560,182 560,173 559,173 559,166 558,166 558,160 557,160 556,145 555,145 553,142 538,142 538,143 534,142 534,143 528,143 528,142 527,142 527,137 526,137 526,135 527,135 527,134 529,134 530,132 537,131 537,130 548,130 548,129 564,128 564,127 570,127 570,126 578,126 578,125 581,125Z
M508,136 511,136 511,137 513,137 513,139 514,139 514,147 508,150 508,156 509,156 509,163 510,163 510,167 511,167 511,174 512,174 513,184 514,184 515,193 516,193 516,198 517,198 517,204 518,204 518,209 519,209 519,218 520,218 520,223 521,223 521,226 522,226 522,232 523,232 523,242 524,242 524,252 522,252 522,253 521,253 521,254 519,254 518,256 510,256 510,255 508,255 508,254 507,254 507,253 506,253 506,252 505,252 505,251 501,248 501,246 500,246 500,245 499,245 499,244 498,244 498,243 494,240 494,238 493,238 493,237 492,237 492,236 488,233 488,231 487,231 487,230 486,230 486,229 485,229 485,228 484,228 484,227 480,224 480,222 479,222 479,221 477,220 477,218 476,218 476,217 475,217 475,216 471,213 471,211 467,208 467,206 466,206 466,205 465,205 465,204 464,204 464,203 463,203 463,202 462,202 462,201 461,201 461,200 460,200 460,199 459,199 459,198 458,198 458,197 457,197 457,196 453,193 453,191 449,188 449,186 448,186 448,185 447,185 447,184 446,184 446,183 445,183 445,182 444,182 444,181 443,181 443,180 442,180 442,179 441,179 441,178 440,178 437,174 427,175 427,174 426,174 426,172 425,172 425,170 424,170 424,168 425,168 425,167 427,167 427,166 431,166 431,165 434,165 434,164 436,164 436,163 438,163 438,162 441,162 441,161 444,161 444,160 447,160 447,159 450,159 450,158 455,159 455,160 456,160 456,162 457,162 457,165 456,165 456,166 455,166 455,167 454,167 454,168 450,171 450,174 451,174 451,175 452,175 452,176 453,176 453,177 457,180 457,182 458,182 458,183 459,183 459,184 463,187 463,189 464,189 464,190 465,190 465,191 466,191 466,192 470,195 470,197 471,197 471,198 472,198 472,199 473,199 473,200 474,200 474,201 475,201 475,202 476,202 476,203 477,203 477,204 481,207 481,209 482,209 482,210 486,213 486,215 487,215 490,219 492,219 493,221 497,221 497,220 499,220 499,219 500,219 500,215 501,215 501,212 502,212 502,207 501,207 501,196 500,196 500,189 499,189 499,183 498,183 498,175 497,175 497,171 496,171 496,168 495,168 495,162 494,162 494,159 495,159 495,151 494,151 494,149 492,149 492,148 485,149 485,148 484,148 484,143 489,142 489,141 493,141 493,140 496,140 496,139 500,139 500,138 503,138 503,137 508,137Z
M736,144 739,144 739,145 742,145 742,146 744,146 744,147 747,147 747,148 749,148 749,149 754,150 755,152 759,153 761,156 763,156 763,157 765,157 767,160 769,160 772,164 774,164 774,165 776,165 776,166 780,167 780,168 781,168 781,169 783,169 784,171 786,171 786,172 788,172 788,173 790,173 790,174 794,175 796,178 798,178 798,183 797,183 797,188 796,188 796,191 795,191 795,193 794,193 793,195 791,195 791,189 790,189 787,185 785,185 785,184 784,184 784,183 783,183 780,179 777,179 777,178 773,177 772,175 770,175 770,174 768,174 768,173 766,173 766,172 763,172 763,171 761,171 761,170 753,170 753,171 751,171 751,172 749,172 749,173 748,173 748,176 747,176 747,178 744,180 743,185 742,185 742,187 741,187 741,190 740,190 739,194 740,194 743,198 745,198 745,199 749,202 749,204 750,204 750,205 752,205 752,206 762,205 762,209 761,209 760,213 758,214 758,216 756,217 756,219 755,219 754,221 749,222 749,221 748,221 748,219 749,219 749,217 750,217 750,214 749,214 746,210 744,210 744,209 743,209 743,208 741,208 741,207 733,207 733,208 730,210 730,212 727,214 726,218 724,219 724,221 722,222 722,225 721,225 721,227 720,227 720,232 721,232 722,236 725,238 725,240 726,240 729,244 731,244 731,245 735,248 735,250 736,250 736,251 738,251 738,252 739,252 739,253 740,253 743,257 749,257 749,262 748,262 748,264 747,264 744,268 739,268 737,265 735,265 735,263 734,263 734,262 730,259 730,257 729,257 729,256 728,256 728,255 727,255 727,254 726,254 726,253 725,253 725,252 724,252 721,248 719,248 719,247 718,247 715,243 713,243 712,241 710,241 710,240 708,240 708,239 704,238 703,236 699,235 699,234 696,232 696,228 698,227 698,225 701,223 701,221 702,221 702,220 703,220 703,218 705,217 706,213 708,212 708,210 709,210 709,208 710,208 711,204 713,203 713,200 714,200 714,198 715,198 715,196 716,196 716,194 717,194 717,192 718,192 718,190 719,190 719,186 720,186 720,184 721,184 721,182 722,182 722,180 723,180 723,178 724,178 724,176 725,176 725,174 726,174 726,172 727,172 727,169 728,169 728,167 729,167 729,165 730,165 730,161 731,161 731,159 732,159 732,157 733,157 733,154 734,154 734,151 735,151 735,148 736,148Z
M624,231 650,232 650,233 653,233 653,234 658,235 658,236 667,236 667,237 671,237 671,238 677,239 677,240 679,240 679,241 682,241 682,242 684,242 684,243 688,243 688,244 690,244 690,245 694,246 694,247 695,247 695,249 696,249 696,250 698,250 698,252 699,252 699,253 703,256 703,258 705,259 705,262 708,264 708,266 709,266 709,268 710,268 711,272 712,272 712,273 713,273 713,274 717,277 719,284 723,287 724,291 726,292 726,294 727,294 727,295 728,295 728,297 730,298 730,316 729,316 729,320 728,320 728,323 727,323 727,328 726,328 726,331 725,331 725,335 724,335 724,338 723,338 723,343 722,343 722,347 721,347 721,352 720,352 720,354 719,354 719,359 718,359 718,362 717,362 717,364 716,364 716,366 715,366 714,370 710,373 710,375 709,375 707,378 705,378 705,379 703,380 703,382 702,382 702,383 701,383 701,384 700,384 697,388 695,388 694,390 692,390 692,391 690,391 690,392 683,393 683,394 681,394 681,395 679,395 678,397 676,397 676,398 675,398 675,400 673,401 673,404 672,404 672,406 671,406 671,408 670,408 670,411 667,413 667,416 666,416 665,422 664,422 664,424 663,424 662,428 660,429 659,433 657,434 657,436 656,436 656,438 655,438 655,440 654,440 654,444 652,445 651,451 650,451 650,453 649,453 649,454 648,454 645,458 640,459 640,460 630,461 630,462 621,462 621,463 607,463 607,462 599,462 599,461 582,462 582,461 579,461 579,460 568,460 568,459 562,458 562,457 560,457 560,456 556,455 555,453 553,453 553,451 552,451 552,449 551,449 551,447 550,447 550,445 549,445 549,442 548,442 548,434 547,434 548,427 549,427 549,424 548,424 548,419 547,419 547,409 548,409 549,404 550,404 550,402 551,402 551,391 550,391 549,386 548,386 548,384 546,383 546,381 545,381 545,380 544,380 544,379 543,379 543,378 542,378 542,377 541,377 541,376 537,373 537,371 536,371 533,367 531,367 531,366 530,366 530,364 528,363 528,360 527,360 527,352 526,352 526,350 527,350 527,341 526,341 526,328 525,328 525,323 526,323 526,302 525,302 525,299 526,299 526,298 525,298 526,291 525,291 525,289 526,289 526,280 527,280 527,275 528,275 529,270 531,269 532,265 533,265 533,264 534,264 534,263 535,263 535,262 536,262 539,258 541,258 544,254 546,254 546,253 548,253 548,252 552,251 553,249 555,249 556,247 558,247 558,246 560,246 560,245 567,244 567,243 575,243 575,242 590,241 590,240 593,240 593,239 595,239 595,238 601,237 601,236 606,235 606,234 609,234 609,233 614,233 614,232 624,232Z
M851,283 861,283 861,284 862,284 862,289 863,289 863,312 862,312 862,315 863,315 864,354 865,354 865,360 864,360 864,362 865,362 865,364 866,364 866,365 877,365 877,366 878,366 879,371 880,371 880,375 881,375 881,378 882,378 882,385 873,386 873,387 870,387 870,388 861,389 861,390 852,391 852,392 847,392 847,393 842,393 842,394 833,394 831,380 834,380 834,379 839,379 839,378 844,378 844,377 846,377 846,376 849,374 849,359 850,359 850,339 851,339 851,315 852,315 852,304 847,303 847,304 845,305 845,308 844,308 844,310 843,310 843,311 840,311 840,310 836,307 836,304 838,303 839,299 841,298 841,295 842,295 842,293 844,292 844,290 845,290 846,286 847,286 848,284 851,284Z
M354,289 369,289 369,290 372,290 372,291 374,292 374,293 373,293 372,318 371,318 372,323 371,323 371,333 370,333 370,343 369,343 369,355 368,355 368,368 367,368 367,375 366,375 366,378 367,378 370,382 374,382 374,383 378,383 378,384 383,384 383,385 385,385 385,387 386,387 386,395 382,395 382,396 365,396 365,395 346,395 346,396 334,396 334,395 331,395 331,394 329,393 329,384 331,384 331,383 339,383 339,384 346,383 347,381 349,381 349,380 351,379 351,377 352,377 352,375 353,375 353,367 354,367 353,362 354,362 354,359 355,359 355,354 356,354 357,339 358,339 358,331 359,331 359,326 360,326 361,315 362,315 362,308 363,308 363,307 361,307 361,306 357,306 357,307 356,307 355,316 353,317 353,319 352,319 351,323 350,323 348,326 345,326 345,325 342,325 342,324 338,324 338,322 339,322 339,319 340,319 340,317 341,317 341,315 342,315 342,312 343,312 343,310 344,310 344,308 345,308 345,306 346,306 346,303 347,303 347,302 348,302 348,300 349,300 349,297 350,297 351,291 352,291 352,290 354,290Z
M428,289 434,289 434,290 438,290 438,291 440,291 440,292 444,293 444,294 448,297 448,300 450,301 451,306 452,306 452,312 453,312 453,330 452,330 451,337 450,337 450,339 449,339 449,341 448,341 448,344 447,344 447,346 446,346 446,349 449,351 449,354 450,354 450,357 451,357 452,372 451,372 451,379 450,379 450,383 449,383 448,389 446,390 446,392 445,392 443,395 441,395 441,396 440,396 440,397 438,397 438,398 433,398 433,399 429,399 429,400 421,401 421,400 416,400 416,399 412,399 411,397 409,397 409,396 405,393 405,391 404,391 404,389 403,389 403,386 402,386 402,379 401,379 401,377 402,377 402,368 403,368 403,365 404,365 404,362 406,361 406,359 407,359 407,358 411,355 411,353 409,352 409,349 408,349 408,347 407,347 407,344 405,343 404,336 403,336 403,319 404,319 404,313 405,313 405,311 406,311 406,309 407,309 407,307 408,307 409,302 412,300 412,298 413,298 414,296 416,296 418,293 420,293 421,291 428,290Z
M810,293 816,293 816,297 817,297 817,305 816,305 815,317 814,317 814,321 813,321 813,325 812,325 812,330 811,330 811,335 810,335 810,338 809,338 809,343 808,343 808,347 807,347 807,349 806,349 805,357 804,357 804,359 803,359 803,362 802,362 802,365 801,365 801,367 800,367 800,369 799,369 799,372 798,372 798,374 797,374 797,377 796,377 796,379 795,379 795,381 794,381 794,383 793,383 793,385 792,385 792,388 791,388 791,390 790,390 789,394 787,395 787,397 786,397 786,398 783,398 783,399 776,399 776,396 778,395 779,389 780,389 780,387 781,387 781,385 782,385 782,381 783,381 783,378 784,378 784,376 785,376 785,373 786,373 786,370 787,370 787,367 788,367 788,363 789,363 790,357 791,357 791,355 792,355 792,351 793,351 794,343 795,343 795,341 796,341 796,336 797,336 797,333 798,333 799,325 800,325 800,323 801,323 801,321 802,321 802,319 803,319 804,312 802,312 802,311 793,311 793,312 783,312 783,313 773,314 773,315 762,315 762,309 761,309 761,307 762,307 762,301 763,301 763,300 768,300 768,299 777,299 777,298 784,298 784,297 800,296 800,295 805,295 805,294 810,294Z
M428,312 428,313 427,313 427,315 426,315 426,324 427,324 429,327 434,327 434,326 436,325 436,316 434,315 434,313 433,313 433,312Z
M626,321 625,323 623,323 623,324 621,324 621,325 619,326 619,329 618,329 617,331 615,331 615,332 613,333 613,336 614,336 614,337 622,337 622,338 625,338 625,339 627,339 627,340 629,340 629,341 634,341 634,342 643,342 643,341 648,341 648,340 650,339 649,329 648,329 648,326 647,326 647,324 646,324 645,322Z
M562,323 562,324 561,324 561,327 560,327 560,329 559,329 559,337 558,337 558,341 559,341 560,343 562,343 563,345 567,345 567,344 569,344 569,343 571,343 571,342 576,342 576,341 579,341 579,342 581,342 581,343 585,343 585,342 587,341 587,336 586,336 586,335 585,335 585,334 584,334 584,333 583,333 580,329 578,329 578,328 574,327 574,326 573,326 572,324 570,324 570,323Z
M426,366 426,367 422,370 422,375 423,375 423,377 424,377 425,379 427,379 427,380 431,380 431,379 433,378 433,370 432,370 432,368 431,368 430,366Z
M591,374 591,375 589,375 589,376 587,377 586,381 584,381 584,382 581,384 581,386 582,386 582,390 584,390 584,391 586,391 586,392 598,391 598,390 602,389 602,388 606,385 606,379 605,379 604,377 602,377 602,376 601,376 601,375 599,375 599,374Z
M469,420 479,421 479,422 481,422 481,423 484,425 484,428 486,429 486,433 487,433 487,439 486,439 486,443 485,443 485,450 484,450 484,452 485,452 486,454 493,455 493,456 495,456 495,457 497,457 497,458 500,458 500,459 502,459 502,460 505,460 505,461 508,461 508,462 511,462 511,463 520,464 520,465 523,465 523,466 527,466 527,467 531,467 531,468 535,468 535,469 540,469 540,470 547,471 547,472 551,472 551,473 555,473 555,474 564,475 564,476 567,476 567,477 570,477 570,478 574,478 574,479 577,479 577,480 581,480 581,481 584,481 584,482 587,482 587,483 591,483 591,484 595,484 595,485 599,485 599,486 603,486 603,487 610,487 610,488 613,488 613,487 615,487 615,486 619,486 619,485 621,485 621,484 623,484 623,483 625,483 625,482 628,482 628,481 630,481 631,479 633,479 633,478 637,477 638,475 644,474 644,473 646,473 646,472 648,472 648,471 651,471 651,470 657,469 657,468 659,468 659,467 665,466 665,465 667,465 667,464 670,464 671,462 674,462 674,461 676,461 676,460 678,460 678,459 680,459 680,458 684,457 685,455 687,455 687,454 691,453 692,451 694,451 695,449 697,449 697,448 699,447 699,445 700,445 700,442 694,439 694,435 695,435 695,434 696,434 696,433 697,433 697,432 698,432 701,428 703,428 703,427 708,426 708,427 714,428 715,430 718,430 718,431 721,433 721,435 722,435 722,441 721,441 720,445 721,445 722,447 727,447 727,448 729,449 729,454 728,454 728,456 727,456 724,460 719,461 719,462 705,462 705,461 696,461 696,462 691,463 691,464 689,464 689,465 686,465 686,466 684,466 684,467 682,467 682,468 680,468 680,469 678,469 678,470 676,470 676,471 673,471 673,472 671,472 670,474 665,475 664,477 662,477 662,478 660,478 660,479 658,479 658,480 656,480 656,481 654,481 654,482 652,482 652,483 650,483 650,484 648,484 648,485 643,486 643,487 640,489 640,492 641,492 642,494 645,494 645,495 651,495 651,496 658,496 658,497 669,498 669,499 677,500 677,501 684,502 684,503 687,503 687,504 704,505 704,504 713,504 713,503 725,503 725,504 728,504 728,505 732,506 732,519 731,519 731,521 724,521 724,522 722,523 722,526 726,529 726,531 725,531 725,537 724,537 724,538 722,538 722,539 711,539 711,538 707,537 707,536 703,533 703,531 702,531 702,524 701,524 700,522 693,521 693,520 691,520 691,519 687,519 687,518 679,517 679,516 672,515 672,514 668,514 668,513 664,513 664,512 659,512 659,511 652,510 652,509 642,508 642,507 638,507 638,506 634,506 634,505 628,505 628,504 624,504 624,503 612,502 612,501 608,501 608,500 604,500 604,499 596,498 596,499 589,500 589,501 587,501 587,502 582,502 582,503 579,503 579,504 573,505 573,506 571,506 571,507 564,508 564,509 561,509 561,510 558,510 558,511 555,511 555,512 549,513 549,514 547,514 547,515 540,516 539,518 535,519 534,521 532,521 532,522 530,523 530,525 529,525 529,526 525,529 525,532 524,532 523,536 521,536 520,538 518,538 517,540 512,541 512,542 503,542 502,540 500,540 500,539 497,537 497,530 496,530 495,528 484,528 484,527 481,527 481,526 479,525 479,518 480,518 480,516 481,516 483,513 485,513 485,512 487,512 487,511 504,511 504,512 511,513 511,514 513,514 514,516 516,516 517,514 520,514 520,513 522,513 522,512 525,512 525,511 528,511 528,510 531,510 531,509 534,509 534,508 539,508 539,507 542,507 542,506 548,505 548,504 550,504 550,503 554,503 554,502 562,501 563,499 566,499 566,498 568,498 568,497 572,496 572,495 574,494 574,492 573,492 572,490 566,490 566,489 563,489 563,488 560,488 560,487 552,486 552,485 550,485 550,484 547,484 547,483 544,483 544,482 540,482 540,481 538,481 538,480 535,480 535,479 532,479 532,478 529,478 529,477 525,477 525,476 523,476 523,475 515,474 515,473 509,472 509,471 507,471 507,470 502,470 502,469 498,469 498,468 494,468 494,467 490,467 490,466 481,466 480,468 477,468 477,469 474,469 474,470 462,470 462,469 459,469 459,468 455,467 455,466 452,464 452,462 450,461 449,456 448,456 448,453 447,453 447,439 448,439 448,438 450,438 450,437 453,437 453,438 456,438 456,439 460,439 460,433 458,432 458,428 459,428 459,426 460,426 462,423 464,423 464,422 466,422 466,421 469,421Z
M915,460 919,460 919,461 921,462 921,464 922,464 922,466 923,466 923,469 924,469 924,472 917,471 917,472 915,472 915,473 911,474 909,477 907,477 905,480 903,480 901,483 899,483 899,484 897,485 897,488 896,488 896,490 895,490 895,493 896,493 896,495 897,495 897,497 898,497 898,500 900,501 900,503 901,503 901,505 902,505 902,507 903,507 904,511 905,511 905,512 906,512 906,514 908,515 909,519 911,520 911,522 912,522 912,523 913,523 913,524 914,524 917,528 922,528 922,527 924,527 924,526 927,526 927,525 930,523 931,517 933,517 934,519 936,519 936,521 937,521 937,522 939,523 939,525 940,525 940,532 927,532 927,533 921,534 921,535 919,536 919,539 918,539 918,545 919,545 920,551 921,551 922,556 923,556 923,560 924,560 924,562 925,562 925,564 926,564 927,568 929,569 929,571 930,571 931,573 936,574 936,575 937,575 937,574 940,574 940,573 944,573 944,572 945,572 945,571 946,571 946,570 947,570 947,569 948,569 948,568 949,568 949,567 950,567 950,566 951,566 951,565 952,565 952,564 953,564 953,563 954,563 954,562 955,562 955,561 956,561 956,560 957,560 957,559 958,559 958,558 959,558 959,557 963,554 963,552 964,552 965,550 968,550 968,551 969,551 969,553 972,555 973,560 974,560 974,562 975,562 975,568 973,568 973,567 969,567 969,568 967,569 967,571 966,571 966,572 965,572 965,573 964,573 964,574 963,574 963,575 962,575 962,576 961,576 961,577 960,577 957,581 955,581 955,582 954,582 954,583 953,583 953,584 952,584 949,588 947,588 947,589 946,589 943,593 941,593 938,597 935,597 934,599 930,598 929,600 925,600 925,598 924,598 924,596 923,596 923,594 922,594 922,592 921,592 921,590 920,590 920,587 919,587 918,582 917,582 917,580 916,580 916,578 915,578 915,575 914,575 913,570 912,570 912,568 911,568 911,565 910,565 910,562 909,562 908,557 907,557 907,555 906,555 906,552 905,552 905,550 904,550 904,548 903,548 903,545 902,545 902,543 901,543 901,541 900,541 900,538 899,538 899,536 898,536 897,530 896,530 896,528 895,528 895,526 894,526 894,524 893,524 893,522 892,522 892,519 891,519 891,517 890,517 890,514 889,514 889,512 888,512 888,509 887,509 887,507 886,507 886,504 885,504 884,499 883,499 883,496 882,496 882,490 883,490 883,488 884,488 884,487 885,487 888,483 890,483 892,480 894,480 896,477 898,477 899,475 901,475 901,474 902,474 902,473 903,473 903,472 904,472 904,471 905,471 905,470 906,470 906,469 907,469 907,468 908,468 908,467 909,467 909,466 910,466 910,465 911,465 911,464 912,464Z
M328,471 332,471 332,472 337,472 337,473 339,473 339,474 341,475 341,477 342,477 345,481 347,481 347,482 350,484 350,488 348,488 348,489 344,489 344,490 340,491 338,494 336,494 336,495 334,496 334,498 333,498 333,499 329,502 329,504 327,505 327,507 324,509 324,511 321,513 320,518 318,519 317,523 316,523 316,524 315,524 315,526 313,527 313,529 312,529 311,533 309,534 308,539 306,540 306,542 305,542 304,546 302,547 302,549 301,549 300,553 298,554 297,558 296,558 296,559 295,559 295,561 293,562 293,564 292,564 292,566 290,567 289,571 288,571 288,572 287,572 287,574 285,575 285,577 284,577 284,579 283,579 283,581 282,581 282,584 281,584 281,586 280,586 280,588 279,588 279,590 278,590 278,593 277,593 277,600 278,600 279,604 280,604 280,605 281,605 281,606 282,606 282,607 283,607 283,608 284,608 284,609 285,609 285,610 286,610 286,611 287,611 290,615 292,615 293,617 295,617 295,618 296,618 296,619 298,619 299,621 301,621 301,622 303,622 303,623 307,624 307,623 308,623 308,622 310,622 313,618 317,618 317,619 318,619 318,624 317,624 316,628 313,630 313,632 311,633 311,635 309,636 309,638 308,638 308,639 307,639 307,640 306,640 306,641 305,641 302,645 300,645 300,646 296,646 296,639 298,639 298,637 299,637 299,636 298,636 296,633 294,633 291,629 289,629 287,626 285,626 285,625 283,625 282,623 280,623 280,622 276,621 274,618 272,618 272,617 271,617 271,615 267,614 267,613 266,613 263,609 261,609 261,608 259,607 259,605 257,604 257,602 256,602 256,595 257,595 257,593 259,592 259,590 260,590 260,588 261,588 262,584 263,584 263,583 264,583 264,582 265,582 265,581 266,581 266,580 270,577 270,575 272,574 272,572 273,572 273,570 274,570 275,566 277,565 277,563 278,563 278,561 279,561 280,557 281,557 281,556 282,556 282,554 286,551 286,549 287,549 288,545 289,545 289,544 291,543 291,541 293,540 293,538 294,538 295,534 297,533 297,531 299,530 299,528 302,526 302,524 303,524 303,522 306,520 306,518 307,518 308,514 309,514 309,513 310,513 310,511 313,509 313,507 316,505 316,503 317,503 318,499 320,498 320,496 322,495 322,493 323,493 323,492 324,492 324,490 326,489 326,486 327,486 326,473 327,473Z
M861,499 866,499 866,500 867,500 867,504 864,506 864,509 865,509 866,515 867,515 867,517 868,517 869,522 870,522 870,523 871,523 871,525 873,526 874,532 875,532 875,534 876,534 876,536 877,536 877,539 878,539 878,541 879,541 879,543 880,543 880,545 881,545 881,547 882,547 882,549 883,549 883,551 884,551 884,554 885,554 885,556 886,556 886,559 887,559 887,561 888,561 888,564 889,564 889,566 890,566 890,568 891,568 892,574 893,574 893,576 894,576 894,578 895,578 895,582 897,583 897,587 898,587 899,593 900,593 900,595 901,595 901,597 902,597 902,600 903,600 903,603 904,603 904,605 905,605 905,609 906,609 906,616 901,616 901,615 899,615 898,613 896,613 896,612 895,612 895,611 894,611 894,610 893,610 893,609 892,609 892,608 891,608 891,607 890,607 890,606 886,603 886,601 885,601 885,600 884,600 884,599 883,599 883,598 882,598 882,597 881,597 881,596 880,596 880,595 879,595 879,594 875,591 875,589 874,589 874,588 870,585 870,583 867,581 867,579 865,578 865,576 862,574 862,572 860,571 860,569 858,568 858,566 857,566 857,565 856,565 856,564 855,564 855,563 854,563 854,562 850,559 850,557 847,555 847,553 846,553 845,551 841,551 841,552 840,552 840,555 841,555 842,559 843,559 843,560 844,560 844,562 845,562 845,565 846,565 846,567 847,567 847,571 848,571 848,574 849,574 850,580 851,580 851,582 852,582 852,587 853,587 853,590 854,590 854,595 855,595 855,599 856,599 856,603 857,603 858,611 859,611 859,614 860,614 861,623 862,623 862,630 863,630 863,636 862,636 862,638 861,638 861,639 859,639 859,640 858,640 858,641 856,641 856,642 849,643 849,642 847,641 847,637 848,637 848,635 850,634 850,623 849,623 849,619 848,619 848,615 847,615 847,611 846,611 846,607 845,607 845,602 844,602 844,598 843,598 843,592 842,592 842,590 841,590 840,583 839,583 839,580 838,580 838,577 837,577 837,574 836,574 836,571 835,571 835,568 834,568 834,565 833,565 833,562 832,562 832,558 831,558 830,550 829,550 829,547 828,547 827,542 826,542 826,540 825,540 825,537 824,537 823,531 822,531 822,529 821,529 821,527 820,527 819,520 824,520 824,521 827,521 827,522 831,523 832,525 836,526 837,528 839,528 840,530 842,530 842,531 843,531 843,533 844,533 844,534 845,534 845,535 846,535 846,536 847,536 847,537 848,537 848,538 849,538 849,539 850,539 850,540 851,540 851,541 852,541 852,542 853,542 853,543 854,543 854,544 855,544 855,545 856,545 856,546 857,546 857,547 858,547 858,548 859,548 859,549 860,549 860,550 861,550 861,551 862,551 862,552 863,552 866,556 870,556 870,555 871,555 871,551 870,551 869,547 867,546 867,543 866,543 866,541 865,541 865,539 864,539 864,537 863,537 863,535 862,535 862,533 861,533 861,531 860,531 860,529 859,529 859,526 858,526 858,524 857,524 856,518 855,518 854,513 853,513 853,510 852,510 852,505 853,505 853,503 855,503 856,501 861,500Z
M412,523 416,523 416,524 418,524 419,526 422,526 423,528 427,529 427,530 428,530 428,534 427,534 427,536 425,537 425,539 424,539 424,541 423,541 423,543 422,543 422,545 421,545 421,547 420,547 420,549 419,549 419,552 418,552 418,554 417,554 417,556 416,556 416,558 415,558 414,562 412,563 412,566 411,566 411,567 410,567 410,569 408,570 408,573 407,573 406,579 405,579 405,581 404,581 404,583 403,583 403,586 402,586 402,588 401,588 401,590 400,590 400,592 399,592 399,594 398,594 398,596 397,596 397,598 396,598 396,601 394,602 394,605 393,605 393,606 392,606 392,608 391,608 391,611 390,611 390,613 389,613 389,615 388,615 388,617 387,617 387,619 386,619 386,621 385,621 385,623 384,623 384,626 383,626 383,628 382,628 382,630 381,630 381,632 380,632 380,634 379,634 379,636 378,636 377,640 375,641 375,643 374,643 374,645 373,645 373,660 374,660 374,662 377,664 379,672 378,672 378,673 369,673 369,672 366,672 366,671 363,671 363,670 359,669 359,668 358,668 358,666 357,666 357,660 358,660 358,659 362,656 362,654 363,654 363,651 364,651 364,648 365,648 365,645 366,645 367,639 368,639 368,637 369,637 369,635 370,635 370,631 371,631 371,629 372,629 372,626 373,626 374,620 375,620 375,618 376,618 376,613 375,613 375,612 373,612 373,611 371,611 371,610 368,610 368,611 364,614 363,618 362,618 362,619 361,619 358,623 356,623 356,624 355,624 355,626 354,626 354,627 353,627 353,628 352,628 352,629 351,629 351,630 350,630 350,631 349,631 349,632 348,632 348,633 344,636 344,638 343,638 343,639 339,642 339,644 338,644 335,648 333,648 333,649 330,651 330,660 328,660 328,659 326,659 326,658 324,658 324,657 320,656 319,654 317,654 317,653 315,652 315,649 316,649 316,648 318,648 318,647 325,648 325,647 328,645 329,641 331,640 331,638 332,638 333,634 335,633 336,629 339,627 340,623 343,621 343,619 344,619 344,618 345,618 345,616 348,614 348,612 350,611 350,609 352,608 352,606 354,605 354,603 355,603 355,602 357,601 357,599 360,597 360,595 362,594 363,590 364,590 364,589 366,588 366,586 370,583 370,581 371,581 371,580 372,580 372,578 375,576 375,574 379,571 379,569 381,568 381,566 383,565 383,563 386,561 387,557 390,555 390,553 393,551 393,549 396,547 396,545 400,542 400,540 402,539 402,537 404,536 404,534 406,533 407,529 410,527 410,525 411,525Z
M799,532 804,533 804,534 806,535 806,541 804,542 804,550 805,550 805,554 806,554 806,556 807,556 808,562 809,562 809,564 810,564 810,566 811,566 811,572 812,572 812,573 813,573 813,575 814,575 814,578 815,578 815,581 816,581 816,585 817,585 818,590 819,590 820,595 821,595 822,606 823,606 823,610 824,610 824,614 825,614 825,626 826,626 826,638 825,638 825,644 824,644 824,648 823,648 821,651 818,651 818,652 816,652 816,653 810,653 810,652 808,652 808,651 804,650 804,649 803,649 803,648 802,648 802,647 801,647 801,646 797,643 797,641 794,639 794,637 793,637 793,636 792,636 792,634 790,633 790,631 789,631 789,629 788,629 788,627 787,627 787,625 786,625 786,623 785,623 785,620 784,620 784,618 783,618 782,612 781,612 781,610 780,610 780,607 779,607 779,604 778,604 778,601 777,601 777,598 776,598 776,595 775,595 775,592 774,592 774,589 773,589 772,583 771,583 771,581 770,581 770,577 769,577 769,574 768,574 767,568 766,568 766,566 765,566 764,562 763,562 761,559 759,559 759,558 754,558 754,556 753,556 753,550 754,550 755,546 757,546 757,545 759,545 759,544 769,544 769,545 770,545 770,548 771,548 771,550 772,550 773,554 775,555 775,559 776,559 776,561 777,561 777,563 778,563 778,565 779,565 780,571 781,571 782,580 783,580 784,586 785,586 785,588 786,588 786,592 787,592 787,596 788,596 788,599 789,599 789,602 790,602 790,606 791,606 791,608 792,608 792,612 793,612 793,614 794,614 794,616 795,616 796,620 797,620 800,624 802,624 802,625 806,625 806,624 810,621 811,611 810,611 810,606 809,606 809,602 808,602 808,594 807,594 807,590 806,590 806,584 805,584 805,580 804,580 803,571 802,571 802,568 801,568 801,565 800,565 800,562 799,562 799,559 798,559 798,555 797,555 797,552 796,552 796,549 795,549 795,546 794,546 794,543 793,543 793,540 792,540 792,535 793,535 793,534 795,534 795,533 799,533Z
M521,555 530,555 530,556 534,556 534,557 537,557 537,558 539,558 539,559 541,559 541,560 543,561 543,564 544,564 544,567 545,567 544,584 543,584 543,586 542,586 541,591 538,593 538,595 537,595 537,597 536,597 535,601 533,602 533,604 532,604 532,605 530,605 530,598 531,598 531,595 532,595 532,592 533,592 533,590 534,590 534,586 535,586 535,576 534,576 532,573 530,573 530,572 524,572 524,573 519,574 519,575 517,576 517,578 515,579 515,582 512,584 512,586 511,586 511,587 510,587 510,589 508,590 508,592 507,592 506,596 504,597 504,600 503,600 503,601 502,601 502,603 500,604 500,606 499,606 499,608 497,609 497,611 496,611 496,613 495,613 495,615 494,615 493,619 490,621 490,623 489,623 489,625 488,625 487,629 485,630 484,635 482,636 482,639 481,639 481,641 480,641 479,645 477,646 476,650 474,651 474,653 473,653 473,655 472,655 472,657 471,657 471,660 470,660 469,666 468,666 468,671 469,671 469,674 470,674 470,675 471,675 471,676 472,676 472,677 473,677 476,681 481,681 482,679 484,679 485,677 487,677 487,676 488,676 488,675 489,675 489,674 490,674 490,673 491,673 491,672 492,672 492,671 493,671 496,667 498,667 498,668 499,668 498,676 497,676 496,681 494,682 494,684 493,684 492,688 490,689 490,691 489,691 489,692 488,692 488,693 487,693 484,697 482,697 482,696 472,696 472,695 468,694 467,692 463,691 463,690 462,690 462,689 461,689 461,688 460,688 460,687 459,687 459,686 455,683 455,681 452,679 452,675 451,675 451,664 452,664 452,661 453,661 454,653 455,653 455,651 456,651 456,647 457,647 457,645 458,645 458,643 459,643 459,641 460,641 460,638 462,637 462,634 463,634 463,632 464,632 464,630 465,630 466,626 468,625 468,622 469,622 469,620 470,620 470,618 471,618 471,616 472,616 472,614 473,614 473,612 474,612 474,609 476,608 476,606 477,606 478,602 480,601 480,599 481,599 481,598 482,598 482,596 484,595 484,593 485,593 486,589 490,586 490,584 491,584 491,582 493,581 493,579 494,579 494,578 495,578 495,577 496,577 496,576 500,573 500,571 501,571 503,568 505,568 507,565 509,565 510,563 512,563 514,559 516,559 518,556 521,556Z
M737,564 739,564 739,566 740,566 741,575 742,575 742,578 743,578 744,583 745,583 745,586 746,586 746,590 747,590 747,594 748,594 748,597 749,597 750,605 751,605 751,608 752,608 752,611 753,611 753,616 754,616 754,619 755,619 755,622 756,622 756,627 757,627 757,629 758,629 758,631 759,631 759,634 760,634 760,636 761,636 761,639 762,639 762,641 763,641 764,650 765,650 765,652 766,652 766,654 767,654 767,657 768,657 771,661 773,661 773,662 775,662 775,663 776,663 776,667 771,667 771,668 760,668 760,662 759,662 758,657 757,657 757,654 756,654 755,646 754,646 754,643 753,643 753,640 752,640 752,637 751,637 751,634 750,634 750,631 749,631 749,627 748,627 748,625 747,625 746,621 745,621 745,620 742,620 742,621 740,621 740,622 738,623 738,629 737,629 737,654 736,654 736,669 734,669 734,668 733,668 733,666 732,666 731,659 730,659 730,655 729,655 729,652 728,652 728,650 727,650 727,648 726,648 725,640 723,639 723,637 722,637 722,635 721,635 720,633 717,633 717,634 716,634 716,636 715,636 715,649 716,649 716,657 717,657 717,664 718,664 718,684 717,684 716,686 712,687 712,688 709,688 709,689 703,689 703,688 701,688 701,684 702,684 702,680 705,678 705,676 706,676 706,673 707,673 707,672 706,672 706,661 705,661 705,654 704,654 703,631 702,631 702,622 701,622 700,598 699,598 699,590 698,590 698,584 697,584 697,575 698,575 698,574 700,574 700,573 703,573 703,572 707,572 707,573 709,573 709,575 710,575 710,577 711,577 711,579 712,579 712,581 713,581 714,586 715,586 715,587 722,587 722,586 725,584 725,579 726,579 726,567 728,567 728,566 734,566 734,565 737,565Z
M393,570 393,571 390,573 390,575 389,575 389,576 388,576 388,577 387,577 387,578 386,578 386,579 382,582 382,585 383,585 383,586 385,586 385,587 387,587 387,588 392,588 392,587 395,585 395,582 396,582 396,580 397,580 397,577 398,577 399,572 398,572 397,570Z
M666,575 669,575 670,586 671,586 671,594 672,594 672,602 673,602 673,613 674,613 674,620 675,620 676,643 677,643 677,648 678,648 677,656 678,656 678,662 679,662 680,672 681,672 681,676 682,676 683,682 684,682 687,686 689,686 689,687 690,687 690,694 688,694 688,695 684,695 684,696 676,696 676,695 675,695 675,693 674,693 674,690 673,690 673,688 672,688 672,683 671,683 671,676 670,676 670,672 669,672 669,667 668,667 667,649 666,649 665,637 664,637 664,633 665,633 665,630 664,630 664,623 663,623 662,621 659,621 659,622 657,622 657,635 656,635 656,639 655,639 655,642 654,642 654,649 653,649 653,655 652,655 652,660 651,660 651,668 650,668 649,682 648,682 647,686 645,687 645,689 642,689 642,688 641,688 641,686 640,686 640,684 639,684 639,681 638,681 638,678 637,678 637,675 636,675 636,672 635,672 635,669 634,669 634,666 633,666 633,661 632,661 632,658 631,658 631,655 630,655 630,651 629,651 629,647 628,647 627,640 626,640 626,631 625,631 625,628 624,628 623,626 620,626 620,627 618,628 618,656 617,656 617,665 616,665 616,670 615,670 614,682 613,682 613,686 612,686 612,689 611,689 611,692 610,692 609,698 608,698 608,700 606,700 606,701 603,701 603,702 596,702 595,704 592,704 592,703 591,703 591,701 593,701 593,700 595,699 595,697 597,696 597,694 598,694 598,689 599,689 599,685 600,685 601,671 602,671 602,665 603,665 603,660 604,660 605,646 606,646 606,639 607,639 607,631 608,631 609,609 610,609 610,606 611,606 611,591 612,591 612,588 613,588 613,582 614,582 614,580 615,580 616,578 619,578 619,577 622,577 622,576 627,577 627,579 628,579 628,581 629,581 629,583 630,583 630,586 631,586 631,590 632,590 632,592 633,592 633,596 634,596 634,605 635,605 636,607 640,607 640,608 642,608 642,607 644,607 644,606 646,605 647,600 648,600 649,591 650,591 650,585 651,585 651,579 652,579 652,578 660,578 660,577 663,577 663,576 666,576Z
M571,576 575,576 575,577 577,577 577,578 580,578 580,579 582,579 583,581 585,581 585,583 586,583 587,592 588,592 588,594 589,594 589,598 590,598 590,600 591,600 591,606 592,606 592,610 593,610 593,622 592,622 593,626 592,626 592,633 591,633 590,643 589,643 589,646 588,646 588,649 587,649 587,654 586,654 586,656 585,656 585,659 584,659 584,662 583,662 583,665 582,665 582,668 581,668 580,674 579,674 579,676 578,676 578,678 577,678 577,680 576,680 576,682 575,682 575,685 574,685 573,689 572,689 572,690 571,690 571,692 570,692 570,695 569,695 569,697 568,697 567,701 566,701 564,704 560,704 560,705 558,705 558,704 549,704 549,703 546,703 546,702 544,702 544,701 543,701 543,699 541,698 541,696 539,695 539,693 538,693 538,691 537,691 537,689 536,689 535,677 534,677 534,646 535,646 535,641 536,641 537,632 538,632 538,628 539,628 539,625 540,625 541,619 542,619 542,617 544,616 544,614 545,614 545,612 546,612 546,608 547,608 547,606 548,606 548,604 549,604 549,602 550,602 551,598 553,597 553,595 554,595 554,593 556,592 556,590 560,587 560,585 561,585 561,584 562,584 562,583 563,583 563,582 564,582 567,578 569,578 569,577 571,577Z
M567,615 567,616 566,616 566,618 565,618 565,620 564,620 564,623 563,623 563,625 562,625 562,628 561,628 561,630 560,630 559,636 558,636 558,638 557,638 557,640 556,640 556,643 555,643 555,645 554,645 554,649 553,649 553,652 552,652 552,655 551,655 550,664 549,664 549,674 550,674 550,675 555,675 555,674 559,671 560,666 561,666 561,664 562,664 562,662 563,662 563,660 564,660 565,654 566,654 566,652 567,652 567,650 568,650 568,646 569,646 569,643 570,643 570,640 571,640 571,637 572,637 572,633 573,633 573,631 574,631 574,619 573,619 573,617 572,617 571,615Z"/>
</svg>
